<?xml version="1.0" standalone="no"?>
<svg viewBox="0 0 200 200" xmlns="http://www.w3.org/2000/svg">
  <path fill="#FF0066" d="M40.2,-62.8C49.3,-56.6,52.2,-40.9,55.4,-27.2C58.6,-13.6,62.2,-2.1,64.5,12.1C66.9,26.3,68,43.1,61,54.7C53.9,66.4,38.6,72.8,23.5,74.8C8.5,76.8,-6.3,74.3,-21.3,70.7C-36.3,67.2,-51.6,62.6,-61.6,52.5C-71.5,42.5,-76.2,27.1,-71.8,14.3C-67.5,1.5,-54.3,-8.6,-46.4,-19.2C-38.5,-29.9,-36,-41,-29.2,-48.3C-22.4,-55.5,-11.2,-58.8,2.2,-62.2C15.5,-65.5,31,-68.9,40.2,-62.8Z" transform="translate(100 100)" />
</svg>
